<svg width="18" height="18" viewBox="0 0 18 18" fill="none" xmlns="http://www.w3.org/2000/svg">
<g clip-path="url(#clip0)">
<path fill-rule="evenodd" clip-rule="evenodd" d="M17.5165 7.82913L17.5152 7.8279L10.1719 0.485596C9.85892 0.172485 9.44277 0 9.00011 0C8.55746 0 8.14131 0.172348 7.82816 0.485458L0.488685 7.82405L0.481269 7.8316C-0.141262 8.45766 -0.159829 9.46116 0.425443 10.1095L8.95496 1.57996L8.96875 1.59375L9 1.5625L17.5616 10.1241C18.1608 9.47517 18.1458 8.4597 17.5165 7.82913ZM16.0723 10.7561L8.98621 3.67004L1.9279 10.7283V16.0608C1.9279 17.13 2.79797 18 3.8676 18H6.74054C7.03171 18 7.26794 17.7639 7.26794 17.4727V13.2363C7.26794 12.7484 7.66486 12.3515 8.15284 12.3515H9.84738C10.3354 12.3515 10.7323 12.7484 10.7323 13.2363V17.4727C10.7323 17.7639 10.9684 18 11.2597 18H14.1326C15.2023 18 16.0723 17.13 16.0723 16.0608V10.7561Z" fill="white"/>
</g>
<defs>
<clipPath id="clip0">
<rect width="18" height="18" fill="white"/>
</clipPath>
</defs>
</svg>
